<svg xmlns="http://www.w3.org/2000/svg" style="display: none;">
    <symbol id="icon-close" viewBox="0 0 4 4">
        <path d="M3.88387 3.88387C3.72904 4.03871 3.47096 4.03871 3.31613 3.88387L2 2.56775L0.683871 3.88387C0.529038 4.03871 0.270958 4.03871 0.116125 3.88387C-0.0387083 3.72904 -0.0387083 3.47096 0.116125 3.31613L1.43225 2L0.116125 0.683871C-0.0387083 0.529038 -0.0387083 0.270958 0.116125 0.116125C0.270958 -0.0387083 0.529038 -0.0387083 0.683871 0.116125L2 1.43225L3.31613 0.116125C3.47096 -0.0387083 3.72904 -0.0387083 3.88387 0.116125C4.03871 0.270958 4.03871 0.529038 3.88387 0.683871L2.56775 2L3.88387 3.31613C4.03871 3.47096 4.03871 3.72902 3.88387 3.88387Z"/>
    </symbol>
    <symbol id="icon-lemonade" viewBox="0 0 37 50">
        <path d="M36.733 6.3778C36.733 5.24293 35.1935 4.75025 33.6873 4.41793C32.2345 4.09732 30.3048 3.85592 28.0749 3.71343V1.53081H33.432V0.000244141H26.5442V7.58932C25.5395 7.63112 24.5088 7.65329 23.4677 7.65329C20.478 7.65329 17.5974 7.47741 15.3569 7.15797C13.4217 6.88209 12.4781 6.57623 12.0348 6.3778C12.4781 6.17946 13.4216 5.8736 15.3569 5.59762C17.5975 5.27818 20.4779 5.1023 23.4677 5.1023C24.0702 5.1023 24.6699 5.10943 25.2501 5.1235L25.2871 3.59332C24.6947 3.57896 24.0825 3.57174 23.4676 3.57174C20.0885 3.57174 16.9058 3.78746 14.5056 4.17926C11.4893 4.67164 10.2023 5.32926 10.2023 6.3778C10.2023 6.39703 10.2037 6.41598 10.2045 6.43502H10.2044L10.2046 6.43737C10.2057 6.46012 10.2074 6.48258 10.2097 6.50494L11.0354 17.5164C11.0361 17.5285 11.0371 17.5408 11.0381 17.5527L11.8289 28.0974L13.3552 27.983L12.6862 19.0605C13.4173 19.3294 14.3087 19.5144 15.187 19.6643C17.4202 20.0455 20.361 20.2555 23.4676 20.2555C26.5741 20.2555 29.5151 20.0455 31.7481 19.6643C32.6264 19.5143 33.5178 19.3295 34.2488 19.0605L32.2586 45.5966C31.7502 45.3718 31.1011 45.1754 30.3036 45.003C28.4695 44.6066 26.0418 44.3881 23.4675 44.3881C22.7641 44.3881 22.0715 44.4045 21.3943 44.4368C22.8966 41.7884 21.1694 36.9726 17.0977 32.9007C15.0214 30.8244 12.6526 29.2727 10.4273 28.5309C8.02319 27.7293 6.03139 27.956 4.81879 29.1686C0.155695 33.8316 -1.30554 40.4475 1.24007 45.0929C0.690755 46.2362 0.84056 47.5177 1.66068 48.3378C2.4809 49.1579 3.76224 49.3079 4.90551 48.7584C6.43149 49.5946 8.17036 49.9986 9.98247 49.9986C13.3156 49.9986 16.897 48.6317 19.8626 46.0768C21.0084 45.9724 22.2192 45.9187 23.4675 45.9187C28.4059 45.9187 31.3177 46.6978 32.0295 47.1942C31.3178 47.6906 28.406 48.4697 23.4675 48.4697C21.5998 48.4697 19.8025 48.35 18.27 48.1238L18.0466 49.638C19.6517 49.875 21.5262 50.0002 23.4675 50.0002C26.0418 50.0002 28.4695 49.7819 30.3036 49.3855C32.5609 48.8975 33.6328 48.2166 33.6698 47.2464L35.8967 17.555C35.898 17.5414 35.899 17.5276 35.8997 17.5139L36.7254 6.50436C36.7274 6.48463 36.7287 6.46451 36.7299 6.4444L36.7306 6.43512H36.7303C36.7314 6.41598 36.733 6.39723 36.733 6.3778ZM26.5441 18.6519C25.5507 18.7 24.5164 18.7249 23.4676 18.7249C17.4946 18.7248 13.8729 17.973 12.8042 17.4545C13.1954 17.2611 14.0657 16.9492 15.9194 16.6666C18.0049 16.3487 20.6855 16.1737 23.4676 16.1737C24.5744 16.1737 25.6 16.1996 26.5441 16.245V18.6519ZM26.5441 14.7142C25.552 14.6676 24.5205 14.6431 23.4676 14.6431C20.3075 14.6431 17.3302 14.8595 15.0841 15.2522C13.9595 15.4489 13.0912 15.6709 12.4514 15.9319L11.8532 7.95299C12.5172 8.19079 13.3936 8.39489 14.5056 8.57633C16.9058 8.96813 20.0885 9.18386 23.4676 9.18386C24.5076 9.18386 25.5383 9.16247 26.5441 9.12145V14.7142ZM13.5898 31.9149C14.4211 32.5121 15.2387 33.2062 16.0155 33.9831C16.7924 34.76 17.4865 35.5775 18.0837 36.4087H13.5898V31.9149ZM7.81889 29.5942C8.44536 29.5942 9.16392 29.7232 9.94341 29.983C10.636 30.2139 11.3466 30.5364 12.0591 30.9361V35.3265L6.55551 29.8228C6.91401 29.6722 7.33842 29.5942 7.81889 29.5942ZM5.4725 30.9045L10.9767 36.4087H6.58637C6.18666 35.6963 5.86401 34.9856 5.63324 34.2931C5.17426 32.9157 5.12533 31.7306 5.4725 30.9045ZM12.0591 37.9395V42.4333C11.2279 41.8362 10.4102 41.1421 9.63345 40.3652C8.85659 39.5882 8.16245 38.7706 7.56528 37.9395H12.0591ZM5.31098 47.2245L4.89516 46.9696L4.48852 47.239C3.87445 47.6456 3.14037 47.6528 2.7432 47.2554C2.34603 46.8582 2.35306 46.1244 2.7597 45.5101L3.02904 45.1035L2.77416 44.6876C0.761849 41.4048 1.23529 36.8108 3.76058 32.8981C4.04203 35.4622 5.73618 38.6326 8.55112 41.4477C11.3663 44.2628 14.5368 45.9566 17.1009 46.2379C13.1881 48.7632 8.59399 49.2368 5.31098 47.2245ZM15.7054 44.3653C15.0129 44.1344 14.3022 43.8118 13.5897 43.4121V39.0218L19.094 44.5261C18.268 44.8733 17.083 44.8246 15.7054 44.3653ZM20.1764 43.4437L14.6721 37.9394H19.0625C19.4622 38.6518 19.7848 39.3626 20.0156 40.0552C20.4748 41.4326 20.5235 42.6177 20.1764 43.4437ZM28.0748 5.24664C31.9113 5.49733 34.1052 6.00094 34.9289 6.3778C34.1053 6.75465 31.9113 7.25817 28.0748 7.50885V5.24664ZM31.0154 18.2321C30.1302 18.367 29.1368 18.4758 28.0748 18.5568V16.3406C31.3292 16.5916 33.3727 17.0765 34.1311 17.4444C33.74 17.6376 32.8697 17.9496 31.0154 18.2321ZM34.4837 15.9318C33.8438 15.6708 32.9756 15.4489 31.8511 15.2522C30.7475 15.0593 29.4666 14.9092 28.0748 14.8061V9.04216C30.3047 8.89968 32.2345 8.65817 33.6872 8.33766C34.1654 8.23219 34.647 8.11022 35.0817 7.957L34.4837 15.9318Z"/>
        <path d="M28.0745 21.4177H26.5439V39.031H28.0745V21.4177Z"/>
    </symbol>
    <symbol id="icon-water" viewBox="0 0 22 50">
        <path d="M21.8566 33.1703C21.8566 32.0579 21.3365 31.0668 20.5206 30.4306C21.3364 29.7944 21.8657 28.8033 21.8657 27.6909C21.8657 26.5197 21.2596 25.4828 20.3689 24.8532C21.2656 24.1448 21.8198 23.0489 21.8198 21.82V14.5256L14.7975 5.38186H16.3405V0.000244141H5.47937V5.38186H7.12009L0 14.5256V21.8202C0 23.0491 0.601659 24.1449 1.49843 24.8534C0.607713 25.483 0.0367193 26.5198 0.0367193 27.6911C0.0367193 28.8034 0.569041 29.7946 1.38486 30.4308C0.569041 31.067 0.0458984 32.0581 0.0458984 33.1705C0.0458984 34.3417 0.60615 35.3786 1.49687 36.0082C0.600096 36.7166 0 37.8125 0 39.0414V45.3036C0 47.4347 1.78281 49.2174 3.91385 49.2174H7.8277V49.1531C8.47917 49.6531 9.29323 50.0002 10.176 50.0002H11.7416C12.6244 50.0002 13.4384 49.6532 14.0899 49.1531V49.2174H18.0037C20.1349 49.2174 21.8197 47.4346 21.8197 45.3036V39.0414C21.8197 37.8125 21.267 36.7167 20.3702 36.0082C21.2611 35.3785 21.8566 34.3416 21.8566 33.1703ZM6.94714 3.9141V1.46791H14.8728V3.9141H6.94714ZM8.97184 5.38186H12.9457L19.6445 14.0902H2.27304L8.97184 5.38186ZM18.3952 31.2134C19.5013 31.2134 20.4011 32.1132 20.4011 33.2193C20.4011 34.3253 19.5013 35.2251 18.3952 35.2251H16.4383V36.6928H18.0038C19.3257 36.6928 20.3522 37.7192 20.3522 39.0411V45.3033C20.3522 46.6252 19.3258 47.7495 18.0038 47.7495H15.2519C15.4789 47.1624 15.6066 46.6622 15.6066 46.0861H14.1389C14.1389 47.408 13.0635 48.5323 11.7417 48.5323H10.176C8.85426 48.5323 7.77878 47.4081 7.77878 46.0861H6.31111C6.31111 46.6623 6.43874 47.1625 6.66579 47.7495H3.91385C2.59208 47.7495 1.46767 46.6253 1.46767 45.3033V39.0411C1.46767 37.7192 2.59198 36.6928 3.91385 36.6928H11.7417V35.2251H3.52254C2.41649 35.2251 1.51669 34.3253 1.51669 33.2193C1.51669 32.1132 2.41649 31.2134 3.52254 31.2134H11.7417V29.7457H3.52254C2.41649 29.7457 1.51669 28.8459 1.51669 27.7399C1.51669 26.6338 2.41649 25.734 3.52254 25.734H11.7417V24.2664H3.91385C2.59208 24.2664 1.46767 23.1421 1.46767 21.8202V15.558H20.3522V21.8202C20.3522 23.142 19.3258 24.2664 18.0038 24.2664H16.4383V25.734H18.3952C19.5013 25.734 20.4011 26.6338 20.4011 27.7399C20.4011 28.8459 19.5013 29.7457 18.3952 29.7457H16.4383V31.2134H18.3952Z"/>
        <path d="M7.04501 10.959H5.47949V12.4267H7.04501V10.959Z"/>
        <path d="M8.61044 9.39355H7.04492V10.8612H8.61044V9.39355Z"/>
        <path d="M14.8731 29.7458H13.3076V31.2135H14.8731V29.7458Z"/>
        <path d="M14.8731 24.2664H13.3076V25.734H14.8731V24.2664Z"/>
        <path d="M14.8731 35.2251H13.3076V36.6928H14.8731V35.2251Z"/>
    </symbol>
    <symbol id="icon-baby-water" viewBox="0 0 42 50">
        <path d="M29.2764 17.2875C29.9874 16.8806 30.4678 16.115 30.4678 15.2387V13.5407C30.4678 12.2397 29.4094 11.1812 28.1084 11.1812H27.4159C27.283 10.7395 27.0369 10.1294 26.5893 9.53385C26.3464 9.21043 25.8873 9.1454 25.5638 9.38825C25.2404 9.63121 25.1753 10.0904 25.4183 10.4137C25.6154 10.6758 25.7579 10.9429 25.8603 11.1811H12.9831C13.0621 10.9973 13.1647 10.7967 13.298 10.5945C13.8948 9.68814 14.8218 9.15399 16.0538 9.00634C17.2652 8.98144 18.243 7.98823 18.243 6.77092C18.243 6.06764 18.035 5.38711 17.6417 4.80287C17.4038 4.44947 17.2781 4.03651 17.2781 3.6086C17.2781 3.00795 17.52 2.45125 17.9595 2.04111C18.3984 1.63127 18.9724 1.42836 19.5754 1.47015C20.6479 1.54407 21.5215 2.4448 21.5639 3.52081C21.5822 3.98182 21.4564 4.42604 21.2005 4.80512C20.8081 5.38614 20.6007 6.06588 20.6007 6.77092C20.6007 7.98823 21.5786 8.98144 22.7898 9.00634C22.8712 9.01611 22.9517 9.02753 23.0298 9.04062C23.4287 9.10682 23.8061 8.8376 23.8727 8.4387C23.9393 8.03979 23.6698 7.66237 23.2709 7.59578C23.156 7.57664 23.0376 7.56013 22.9188 7.54666C22.8916 7.54353 22.864 7.54207 22.8365 7.54207C22.4114 7.54207 22.0655 7.19619 22.0655 6.77102C22.0655 6.35923 22.1861 5.96296 22.4144 5.62489C22.8461 4.98548 23.0581 4.23786 23.0274 3.46301C22.9546 1.62043 21.5137 0.135558 19.676 0.0089051C18.6634 -0.0608175 17.6988 0.280667 16.9598 0.970471C16.2311 1.65071 15.8133 2.61227 15.8133 3.6087C15.8133 4.32907 16.0254 5.02483 16.4265 5.62099C16.6566 5.96267 16.7783 6.3603 16.7783 6.77102C16.7783 7.19619 16.4324 7.54207 16.0072 7.54207C15.9797 7.54207 15.9523 7.54363 15.9248 7.54666C13.0878 7.86783 11.8228 9.80268 11.4182 11.181H10.7353C9.43426 11.181 8.37583 12.2395 8.37583 13.5405V15.2385C8.37583 16.1147 8.85627 16.8804 9.56726 17.2873L8.56459 18.753C7.849 19.799 7.4707 21.0219 7.4707 22.2893V35.4718C7.4707 35.8763 7.79852 36.2042 8.20308 36.2042C8.60765 36.2042 8.93546 35.8763 8.93546 35.4718V22.2895C8.93546 21.3184 9.22529 20.3816 9.7736 19.5802L11.1295 17.5981H27.7144L29.0704 19.5802C29.6187 20.3816 29.9085 21.3184 29.9085 22.2895V46.6952C29.9085 47.7098 29.083 48.5352 28.0685 48.5352H10.7755C9.7609 48.5352 8.93546 47.7098 8.93546 46.6952V38.8671C8.93546 38.4627 8.60765 38.1348 8.20308 38.1348C7.79852 38.1348 7.4707 38.4627 7.4707 38.8671V46.6952C7.4707 48.5175 8.95324 50 10.7755 50H28.0685C29.8907 50 31.3732 48.5175 31.3732 46.6952V22.2895C31.3732 21.0221 30.9949 19.7992 30.2794 18.7531L29.2764 17.2875ZM29.0032 15.2387C29.0032 15.732 28.6018 16.1334 28.1085 16.1334H28.1006H10.743H10.7351C10.2417 16.1334 9.84039 15.732 9.84039 15.2387V13.5407C9.84039 13.0473 10.2417 12.646 10.7351 12.646H28.1084C28.6017 12.646 29.0031 13.0473 29.0031 13.5407V15.2387H29.0032Z"/>
        <path d="M12.0097 25.2936H14.5586C14.9632 25.2936 15.291 24.9657 15.291 24.5612C15.291 24.1568 14.9632 23.8289 14.5586 23.8289H12.0097C11.6052 23.8289 11.2773 24.1568 11.2773 24.5612C11.2773 24.9657 11.6053 25.2936 12.0097 25.2936Z"/>
        <path d="M12.0097 29.5461H16.8854C17.29 29.5461 17.6178 29.2181 17.6178 28.8137C17.6178 28.4092 17.29 28.0813 16.8854 28.0813H12.0097C11.6052 28.0813 11.2773 28.4092 11.2773 28.8137C11.2773 29.2181 11.6053 29.5461 12.0097 29.5461Z"/>
        <path d="M12.0097 33.7987H14.5586C14.9632 33.7987 15.291 33.4708 15.291 33.0664C15.291 32.6619 14.9632 32.334 14.5586 32.334H12.0097C11.6052 32.334 11.2773 32.6619 11.2773 33.0664C11.2773 33.4708 11.6053 33.7987 12.0097 33.7987Z"/>
        <path d="M12.0097 38.0514H16.8854C17.29 38.0514 17.6178 37.7235 17.6178 37.3191C17.6178 36.9146 17.29 36.5867 16.8854 36.5867H12.0097C11.6052 36.5867 11.2773 36.9146 11.2773 37.3191C11.2773 37.7235 11.6053 38.0514 12.0097 38.0514Z"/>
        <path d="M12.0097 42.3041H14.5586C14.9632 42.3041 15.291 41.9762 15.291 41.5717C15.291 41.1673 14.9632 40.8394 14.5586 40.8394H12.0097C11.6052 40.8394 11.2773 41.1673 11.2773 41.5717C11.2773 41.9762 11.6053 42.3041 12.0097 42.3041Z"/>
        <path d="M36.1456 7.1287C36.4658 6.38616 37.0899 5.38671 38.2446 4.8426C38.6141 4.66849 38.8437 4.3064 38.8437 3.89763C38.8437 3.48896 38.6141 3.12687 38.2446 2.95276C37.0899 2.40865 36.4658 1.4092 36.1457 0.666663C35.9801 0.282408 35.6032 0.0341797 35.1855 0.0341797C34.7679 0.0341797 34.3909 0.282408 34.2253 0.666663C33.9052 1.4092 33.2811 2.40865 32.1264 2.95276C31.7569 3.12687 31.5273 3.48896 31.5273 3.89763C31.5273 4.3064 31.7569 4.66849 32.1265 4.8426C33.2811 5.38661 33.9052 6.38606 34.2253 7.1286C34.3909 7.51285 34.7679 7.76108 35.1855 7.76108C35.6032 7.76108 35.9801 7.51295 36.1456 7.1287ZM33.4257 3.89773C34.2377 3.3585 34.8005 2.66108 35.1855 2.00672C35.5706 2.66118 36.1333 3.3585 36.9454 3.89773C36.1333 4.43696 35.5706 5.13428 35.1855 5.78873C34.8005 5.13428 34.2377 4.43705 33.4257 3.89773Z"/>
        <path d="M6.71719 9.11111C5.56257 8.5671 4.93849 7.56765 4.61839 6.82511C4.45277 6.44085 4.07584 6.19263 3.65819 6.19263C3.24054 6.19263 2.86361 6.44085 2.69799 6.82511C2.37789 7.56765 1.75381 8.5671 0.599087 9.11111C0.229577 9.28522 0 9.64731 0 10.0561C0 10.4647 0.229577 10.8268 0.599087 11.0009C1.75381 11.5451 2.37789 12.5444 2.69799 13.2869C2.86361 13.6712 3.24054 13.9195 3.65819 13.9195C4.07584 13.9195 4.45277 13.6713 4.61829 13.287C4.93849 12.5445 5.56257 11.5451 6.71729 11.0009C7.0868 10.8268 7.31638 10.4647 7.31638 10.0561C7.31638 9.64731 7.0868 9.28522 6.71719 9.11111ZM3.65819 11.947C3.27315 11.2925 2.71039 10.5953 1.89833 10.056C2.71039 9.51675 3.27315 8.81933 3.65819 8.16498C4.04323 8.81943 4.60599 9.51675 5.41805 10.056C4.60599 10.5953 4.04323 11.2926 3.65819 11.947Z"/>
        <path d="M41.1704 12.2422C40.0156 11.6981 39.3916 10.6988 39.0715 9.95602C38.9058 9.57186 38.5289 9.32373 38.1113 9.32373C37.6939 9.32373 37.3169 9.57196 37.1512 9.95602C37.1512 9.95602 37.1512 9.95612 37.1511 9.95621C36.8311 10.6988 36.2071 11.698 35.0522 12.2422C34.6827 12.4163 34.4531 12.7784 34.4531 13.1871C34.4531 13.5959 34.6827 13.9579 35.0522 14.132C36.2072 14.6763 36.8311 15.6756 37.1512 16.4182C37.3169 16.8024 37.6939 17.0505 38.1113 17.0505C38.5289 17.0505 38.9058 16.8023 39.0716 16.4181C39.3916 15.6755 40.0156 14.6762 41.1705 14.132C41.54 13.9579 41.7696 13.5959 41.7696 13.1871C41.7696 12.7784 41.54 12.4163 41.1704 12.2422ZM38.1113 15.0781C37.7264 14.4237 37.1636 13.7265 36.3515 13.1871C37.1636 12.6479 37.7264 11.9505 38.1113 11.2961C38.4964 11.9505 39.0591 12.6478 39.8713 13.1871C39.0591 13.7264 38.4964 14.4237 38.1113 15.0781Z"/>
    </symbol>
    <symbol id="icon-energy-drink" viewBox="0 0 28 50">
        <path d="M27.3502 41.1786V37.9432V37.9429V37.9426L27.3501 13.6753C27.3501 12.6519 26.9622 11.6827 26.257 10.9415C26.2516 10.9353 26.2462 10.9292 26.2404 10.9231L23.3324 7.80981C24.2568 7.49331 24.9235 6.61636 24.9235 5.58608C24.9235 4.29009 23.8691 3.23589 22.5732 3.23589H16.0254V2.35044C16.0253 1.05454 14.9711 0.000244141 13.6751 0.000244141C12.3792 0.000244141 11.3249 1.05454 11.3249 2.35044V3.23589H4.77705C3.48105 3.23589 2.42676 4.29019 2.42676 5.58608C2.42676 6.61636 3.09346 7.49331 4.01787 7.80981L1.10977 10.9231C1.1041 10.9292 1.09863 10.9352 1.09316 10.9415C0.387891 11.6826 0 12.6519 0 13.6753V31.471C0 31.8756 0.327832 32.2035 0.732422 32.2035C1.13701 32.2035 1.46484 31.8756 1.46484 31.471V19.2613H25.8853V37.2105H1.46484V34.4005C1.46484 33.9959 1.13691 33.6681 0.732422 33.6681C0.327832 33.6681 0 33.996 0 34.4005L9.76026e-05 42.7965C9.76026e-05 43.82 0.388086 44.7894 1.09326 45.5305C1.09863 45.5368 1.1041 45.5427 1.10977 45.5487L4.571 49.2543C5.01377 49.7283 5.63975 50.0002 6.28848 50.0002H21.0615C21.7103 50.0002 22.3362 49.7284 22.779 49.2542L26.2403 45.5487C26.246 45.5427 26.2515 45.5367 26.2568 45.5305C26.9622 44.7894 27.3501 43.8201 27.3501 42.7965V41.1789V41.1788V41.1786H27.3502ZM12.7897 2.35044C12.7897 1.86226 13.1869 1.46509 13.6751 1.46509C14.1633 1.46509 14.5604 1.86226 14.5604 2.35044V3.23589H12.7896V2.35044H12.7897ZM4.77705 4.70083H22.5731C23.0614 4.70083 23.4586 5.098 23.4586 5.58618C23.4586 6.07437 23.0614 6.47153 22.5731 6.47153H4.77705C4.28877 6.47153 3.8916 6.07437 3.8916 5.58618C3.8916 5.098 4.28877 4.70083 4.77705 4.70083ZM2.17178 11.9331C2.1832 11.9212 2.19414 11.9092 2.20469 11.8968L5.904 7.93638H21.4464L25.1455 11.8966C25.156 11.9091 25.1671 11.9212 25.1784 11.933C25.6344 12.403 25.8853 13.0216 25.8853 13.6753V14.5607H1.46484V13.6753C1.46484 13.0217 1.71592 12.403 2.17178 11.9331ZM1.46484 17.7964V16.0256H25.8853V17.7965H1.46484V17.7964ZM25.8853 38.6753V40.4462H1.46484V38.6753H25.8853ZM21.7087 48.2543C21.5418 48.433 21.306 48.5354 21.0616 48.5354H6.28848C6.04414 48.5354 5.8083 48.433 5.64141 48.2544L4.24971 46.7645H23.1002L21.7087 48.2543ZM25.1784 44.5387C25.167 44.5504 25.1561 44.5625 25.1455 44.575L24.4686 45.2997H2.88154L2.20469 44.5751C2.19424 44.5626 2.1832 44.5505 2.17178 44.5387C1.71592 44.069 1.46494 43.4501 1.46494 42.7964V41.9111H25.8854V42.7964C25.8853 43.4502 25.6343 44.069 25.1784 44.5387Z"/>
        <path d="M8.82129 11.1721H18.5283C18.9329 11.1721 19.2607 10.8443 19.2607 10.4397C19.2607 10.0351 18.9329 9.70728 18.5283 9.70728H8.82129C8.4167 9.70728 8.08887 10.0351 8.08887 10.4397C8.08887 10.8443 8.4167 11.1721 8.82129 11.1721Z"/>
        <path d="M19.4141 34.7073C19.4141 35.1119 19.7419 35.4397 20.1465 35.4397H23.3821C23.7867 35.4397 24.1146 35.1119 24.1146 34.7073C24.1146 34.3027 23.7867 33.9749 23.3821 33.9749H20.1464C19.7419 33.9749 19.4141 34.3028 19.4141 34.7073Z"/>
        <path d="M23.3825 32.2041C23.7871 32.2041 24.1149 31.8763 24.1149 31.4717C24.1149 31.0671 23.7871 30.7393 23.3825 30.7393H21.7646C21.3601 30.7393 21.0322 31.0671 21.0322 31.4717C21.0322 31.8763 21.3601 32.2041 21.7646 32.2041H23.3825Z"/>
        <path d="M7.93584 23.3824C7.93584 22.0865 6.88154 21.0322 5.58564 21.0322C4.28965 21.0322 3.23535 22.0865 3.23535 23.3824C3.23535 24.6784 4.28975 25.7326 5.58564 25.7326C6.88164 25.7326 7.93584 24.6783 7.93584 23.3824ZM4.7002 23.3824C4.7002 22.8942 5.09736 22.4971 5.58564 22.4971C6.07383 22.4971 6.471 22.8942 6.471 23.3824C6.471 23.8706 6.07383 24.2678 5.58564 24.2678C5.09736 24.2678 4.7002 23.8706 4.7002 23.3824Z"/>
        <path d="M13.8981 21.0671C13.5948 20.9702 13.2636 21.0798 13.0786 21.3389L9.03394 27.0012C8.91509 27.1675 8.87115 27.3759 8.91285 27.5761C8.95445 27.7762 9.07779 27.9498 9.25308 28.055L12.942 30.2684V34.7072C12.942 35.0257 13.1477 35.3076 13.4509 35.4048C13.5247 35.4283 13.5999 35.4397 13.6744 35.4397C13.9064 35.4397 14.1303 35.3291 14.2705 35.1329L18.3151 29.4705C18.4339 29.3042 18.4779 29.0958 18.4362 28.8956C18.3946 28.6955 18.2712 28.5219 18.096 28.4167L14.407 26.2033V21.7646C14.407 21.4461 14.2013 21.1643 13.8981 21.0671ZM16.6621 29.2647L14.407 32.4218V29.8537C14.407 29.5964 14.272 29.358 14.0513 29.2256L10.6871 27.207L12.9421 24.05V26.618C12.9421 26.8753 13.0771 27.1137 13.2978 27.2461L16.6621 29.2647Z"/>
    </symbol>
    <symbol id="icon-menu" viewBox="0 0 25 22">
        <path d="M0.939791 2.01213H15.2457C15.6391 0.843977 16.744 0 18.0431 0C19.3421 0 20.4471 0.843977 20.8404 2.01213H23.0734C23.5921 2.01213 24.0127 2.43268 24.0127 2.95141C24.0127 3.47015 23.5921 3.89069 23.0734 3.89069H20.8403C20.447 5.05885 19.3421 5.90283 18.043 5.90283C16.7439 5.90283 15.639 5.05885 15.2457 3.89069H0.939728C0.420994 3.89069 0.00044632 3.47015 0.00044632 2.95141C0.00044632 2.43268 0.420994 2.01213 0.939791 2.01213ZM18.0431 4.02426C18.6346 4.02426 19.1159 3.54297 19.1159 2.95141C19.1159 2.35985 18.6346 1.87856 18.0431 1.87856C17.4515 1.87856 16.9702 2.35985 16.9702 2.95141C16.9702 3.54297 17.4515 4.02426 18.0431 4.02426Z"/>
        <path d="M0.939791 10.0607H3.1729C3.56621 8.89256 4.67118 8.04858 5.97021 8.04858C7.26924 8.04858 8.37415 8.89256 8.76746 10.0607H23.0734C23.5921 10.0607 24.0127 10.4813 24.0127 11C24.0127 11.5187 23.5921 11.9393 23.0734 11.9393H8.76746C8.37415 13.1074 7.26918 13.9514 5.97015 13.9514C4.67112 13.9514 3.56615 13.1074 3.17284 11.9393H0.939728C0.420994 11.9393 0.00044632 11.5187 0.00044632 11C0.00044632 10.4813 0.420994 10.0607 0.939791 10.0607ZM5.97015 12.0728C6.56171 12.0728 7.043 11.5916 7.043 11C7.043 10.4084 6.56171 9.92715 5.97015 9.92715C5.37859 9.92715 4.8973 10.4084 4.8973 11C4.8973 11.5916 5.37859 12.0728 5.97015 12.0728Z"/>
        <path d="M0.939791 18.1093H11.2214C11.6147 16.9411 12.7196 16.0972 14.0187 16.0972C15.3178 16.0972 16.4227 16.9411 16.816 18.1093H23.0734C23.5921 18.1093 24.0127 18.5298 24.0127 19.0486C24.0127 19.5673 23.5921 19.9879 23.0734 19.9879H16.816C16.4227 21.156 15.3178 22 14.0187 22C12.7196 22 11.6147 21.156 11.2214 19.9879H0.939728C0.420994 19.9879 0.00044632 19.5673 0.00044632 19.0486C0.00044632 18.5298 0.420994 18.1093 0.939791 18.1093ZM14.0187 20.1215C14.6103 20.1215 15.0916 19.6402 15.0916 19.0486C15.0916 18.4571 14.6103 17.9758 14.0187 17.9758C13.4272 17.9758 12.9459 18.457 12.9459 19.0486C12.9459 19.6401 13.4272 20.1215 14.0187 20.1215Z"/>
    </symbol>
    <symbol id="icon-supermarket" viewBox="0 0 50 45">
        <path d="M46.7693 30.4878C46.3646 30.4878 46.0369 30.8159 46.0369 31.2202V42.897H30.9399V29.0355C30.9399 28.0929 30.1731 27.3262 29.2309 27.3262H20.7699C19.8277 27.3262 19.0609 28.0933 19.0609 29.0355V42.897H3.96387V31.2202C3.96387 30.8159 3.63618 30.4878 3.23145 30.4878C2.82671 30.4878 2.49902 30.8159 2.49902 31.2202V43.2388C2.49902 43.8579 3.00294 44.3618 3.62207 44.3618H46.3787C46.9978 44.3618 47.5018 43.8579 47.5018 43.2388V31.2202C47.5018 30.8159 47.1741 30.4878 46.7693 30.4878ZM20.5258 42.897V29.0355C20.5258 28.9009 20.6352 28.791 20.7699 28.791H29.2309C29.3656 28.791 29.475 28.9009 29.475 29.0355V42.897H20.5258Z"/>
        <path d="M43.2896 40.0032C44.1494 40.0032 44.849 39.3035 44.849 38.4437V30.4512C44.849 29.5913 44.1494 28.8921 43.2896 28.8921H34.2255C33.3656 28.8921 32.666 29.5913 32.666 30.4512V38.4437C32.666 39.3035 33.3656 40.0032 34.2255 40.0032H43.2896ZM34.1309 38.4437V30.4512C34.1309 30.3993 34.1732 30.3569 34.2255 30.3569H43.2896C43.3418 30.3569 43.3842 30.3993 43.3842 30.4512V38.4437C43.3842 38.496 43.3418 38.5383 43.2896 38.5383H34.2255C34.1732 38.5383 34.1309 38.496 34.1309 38.4437Z"/>
        <path d="M15.7749 40.0032C16.6348 40.0032 17.3344 39.3035 17.3344 38.4437V30.4512C17.3344 29.5913 16.6348 28.8921 15.7749 28.8921H6.71082C5.85098 28.8921 5.15137 29.5913 5.15137 30.4512V38.4437C5.15137 39.3035 5.85098 40.0032 6.71082 40.0032H15.7749ZM6.61621 38.4437V30.4512C6.61621 30.3993 6.65855 30.3569 6.71082 30.3569H15.7749C15.8272 30.3569 15.8695 30.3993 15.8695 30.4512V38.4437C15.8695 38.496 15.8272 38.5383 15.7749 38.5383H6.71082C6.65855 38.5383 6.61621 38.496 6.61621 38.4437Z"/>
        <path d="M47.8477 10.7979C47.8477 10.0155 48.4844 9.3792 49.2676 9.3792C49.6723 9.3792 50 9.05113 50 8.64677V6.85463C50 6.45027 49.6723 6.12221 49.2676 6.12221H37.1769C36.7722 6.12221 36.4445 6.45027 36.4445 6.85463C36.4445 7.25937 36.7722 7.58705 37.1769 7.58705H48.5352V8.00858C47.5323 8.27179 46.7407 9.06296 46.4771 10.0655H34.9548V3.56369C34.9548 1.59874 33.3561 0 31.3911 0H18.6092C16.6439 0 15.0455 1.59874 15.0455 3.56369V6.12221H0.732422C0.327683 6.12221 0 6.45027 0 6.85463V8.64677C0 9.05113 0.327683 9.3792 0.732422 9.3792C1.51558 9.3792 2.15225 10.0155 2.15225 10.7979C2.15225 11.0622 2.29225 11.2938 2.50206 11.4227V16.4253H1.18408C0.564575 16.4253 0.0606537 16.9292 0.0606537 17.5484V21.5366C0.0606537 22.1558 0.564575 22.6597 1.18408 22.6597H2.50206V28.2959C2.50206 28.7003 2.82974 29.0283 3.23448 29.0283C3.63922 29.0283 3.9669 28.7003 3.9669 28.2959V22.6597H46.0938V28.297C46.0938 28.7014 46.4214 29.0295 46.8262 29.0295C47.2305 29.0295 47.5586 28.7014 47.5586 28.297V22.6597H48.8766C49.4961 22.6597 50 22.1558 50 21.5366V17.5484C50 16.9292 49.4961 16.4253 48.8766 16.4253H47.5586V11.3811C47.7341 11.2473 47.8477 11.0359 47.8477 10.7979ZM16.51 3.56369C16.51 2.40631 17.4519 1.46484 18.6089 1.46484H31.3908C32.5481 1.46484 33.4896 2.40631 33.4896 3.56369V11.5551C33.4896 12.7125 32.5481 13.6539 31.3908 13.6539H18.6092C17.4519 13.6539 16.5104 12.7125 16.5104 11.5551V3.56369H16.51ZM48.5352 21.1948H1.5255V17.8902H48.5352V21.1948ZM3.9669 16.4253V11.5303H12.8487C13.2534 11.5303 13.5811 11.2026 13.5811 10.7979C13.5811 10.3935 13.2534 10.0655 12.8487 10.0655H3.52287C3.25928 9.06296 2.46773 8.27179 1.46484 8.00858V7.58705H15.0452V11.5555C15.0452 13.5204 16.6439 15.1192 18.6089 15.1192H31.3908C33.3561 15.1192 34.9545 13.5204 34.9545 11.5555V11.5307H46.0934V16.4253H3.9669Z"/>
        <path d="M22.168 35.1116H21.582C21.1773 35.1116 20.8496 35.4396 20.8496 35.844C20.8496 36.2484 21.1773 36.5764 21.582 36.5764H22.168C22.5727 36.5764 22.9004 36.2484 22.9004 35.844C22.9004 35.4396 22.5727 35.1116 22.168 35.1116Z"/>
        <path d="M19.7535 4.38794H20.6511L21.572 8.7901C21.7505 9.64307 22.5127 10.2626 23.3844 10.2626H27.7335C28.4991 10.2626 29.1953 9.78116 29.4657 9.06514L30.902 5.26303C31.0385 4.90102 30.989 4.49513 30.7692 4.17737C30.5495 3.85922 30.1871 3.66925 29.8007 3.66925H23.6495C23.2451 3.66925 22.9171 3.99693 22.9171 4.40167C22.9171 4.80603 23.2451 5.13409 23.6495 5.13409H29.3849L28.0955 8.54749C28.039 8.69702 27.8937 8.79773 27.7339 8.79773H23.3844C23.2024 8.79773 23.0433 8.66803 23.0059 8.49026L22.0813 4.07094C21.942 3.40565 21.3481 2.9231 20.6683 2.9231H19.7539C19.3492 2.9231 19.0215 3.25078 19.0215 3.65552C19.0215 4.05988 19.3492 4.38794 19.7535 4.38794Z"/>
        <path d="M23.5107 10.8772H23.3154C22.9107 10.8772 22.583 11.2049 22.583 11.6096C22.583 12.014 22.9107 12.342 23.3154 12.342H23.5107C23.9155 12.342 24.2432 12.014 24.2432 11.6096C24.2432 11.2049 23.9155 10.8772 23.5107 10.8772Z"/>
        <path d="M26.6846 10.8772H26.4893C26.0845 10.8772 25.7568 11.2049 25.7568 11.6096C25.7568 12.014 26.0845 12.342 26.4893 12.342H26.6846C27.0893 12.342 27.417 12.014 27.417 11.6096C27.417 11.2049 27.0893 10.8772 26.6846 10.8772Z"/>
    </symbol>
    <symbol id="icon-cafe" viewBox="0 0 49 50">
        <path d="M46.4369 23.4075C45.1026 23.0745 43.7499 23.8817 43.4094 25.2142L42.4986 28.6292V12.5C44.3395 12.5 45.8319 11.0076 45.8319 9.16667V6.66667C45.8277 5.88076 45.4581 5.14153 44.8319 4.66667L40.6086 1.5C39.3091 0.527445 37.73 0.00125792 36.1069 0H12.2236C10.601 0.00137846 9.02243 0.527571 7.72356 1.5L3.49856 4.66667C2.87201 5.14127 2.50232 5.88066 2.49856 6.66667V9.16667C2.49856 11.0076 3.99094 12.5 5.83189 12.5V28.6292L4.92439 25.2267C4.58589 23.8881 3.22633 23.0773 1.88773 23.4158C0.549126 23.7543 -0.261612 25.1139 0.0768926 26.4525L3.41023 38.9392C3.5301 39.4115 3.78595 39.8383 4.14606 40.1667L3.33189 49.0917C3.31108 49.3129 3.37947 49.5332 3.52186 49.7038C3.66425 49.8743 3.86886 49.981 4.09023 50H4.16606C4.59853 50.0018 4.96047 49.6724 4.99939 49.2417L5.75939 40.8333H14.9986C16.3793 40.8333 17.4986 41.9526 17.4986 43.3333V46.6925C16.9603 47.4053 16.6679 48.2735 16.6652 49.1667C16.6652 49.6269 17.0383 50 17.4986 50H30.8319C31.2921 50 31.6652 49.6269 31.6652 49.1667C31.6625 48.2735 31.3701 47.4053 30.8319 46.6925V43.3333C30.8319 41.9526 31.9512 40.8333 33.3319 40.8333H42.5711L43.3319 49.2417C43.3708 49.6724 43.7327 50.0018 44.1652 50H44.2411C44.4623 49.9808 44.6667 49.874 44.8089 49.7035C44.9511 49.533 45.0194 49.3127 44.9986 49.0917L44.1877 40.175C44.5476 39.8498 44.8036 39.4258 44.9236 38.9558L48.2569 26.4433C48.4189 25.7994 48.3181 25.1174 47.9766 24.5479C47.6352 23.9783 47.0812 23.568 46.4369 23.4075ZM30.8319 39.1667C30.8319 38.2462 31.5781 37.5 32.4986 37.5H40.1327L40.0727 37.7267C39.9535 38.2032 39.9785 38.7043 40.1444 39.1667H30.8319ZM42.4986 10.8333H39.1652C38.2447 10.8333 37.4986 10.0871 37.4986 9.16667V7.5H44.1652V9.16667C44.1652 10.0871 43.419 10.8333 42.4986 10.8333ZM12.4986 7.5H19.1652V9.16667C19.1652 10.0871 18.419 10.8333 17.4986 10.8333H14.1652C13.2448 10.8333 12.4986 10.0871 12.4986 9.16667V7.5ZM20.8319 7.5H27.4986V9.16667C27.4986 10.0871 26.7524 10.8333 25.8319 10.8333H22.4986C21.5781 10.8333 20.8319 10.0871 20.8319 9.16667V7.5ZM29.1652 7.5H35.8319V9.16667C35.8319 10.0871 35.0857 10.8333 34.1652 10.8333H30.8319C29.9114 10.8333 29.1652 10.0871 29.1652 9.16667V7.5ZM8.72522 2.83333C9.73503 2.0774 10.9622 1.66816 12.2236 1.66667H36.1069C37.3689 1.66775 38.5967 2.07701 39.6069 2.83333L43.6069 5.83333H4.72106L8.72522 2.83333ZM4.16523 9.16667V7.5H10.8319V9.16667C10.8319 10.0871 10.0857 10.8333 9.16522 10.8333H5.83189C4.91142 10.8333 4.16523 10.0871 4.16523 9.16667ZM7.49856 12.5H9.16522C10.1225 12.5005 11.0335 12.0884 11.6652 11.3692C12.2969 12.0884 13.208 12.5005 14.1652 12.5H17.4986C18.4558 12.5005 19.3669 12.0884 19.9986 11.3692C20.6303 12.0884 21.5413 12.5005 22.4986 12.5H25.8319C26.7892 12.5005 27.7002 12.0884 28.3319 11.3692C28.9636 12.0884 29.8746 12.5005 30.8319 12.5H34.1652C35.1225 12.5005 36.0335 12.0884 36.6652 11.3692C37.2969 12.0884 38.208 12.5005 39.1652 12.5H40.8319V34.88L40.5819 35.8333H32.4986C30.6576 35.8333 29.1652 37.3257 29.1652 39.1667C29.1666 39.8201 29.5498 40.4124 30.1452 40.6817C29.5165 41.4226 29.1694 42.3616 29.1652 43.3333V45.3533C28.7491 45.1766 28.3069 45.0693 27.8561 45.0358C27.5727 44.69 26.6652 43.2033 26.6652 38.3333V32.5H35.8319V33.3333C35.8319 33.7936 36.205 34.1667 36.6652 34.1667C37.1255 34.1667 37.4986 33.7936 37.4986 33.3333V30C37.4986 28.6193 36.3793 27.5 34.9986 27.5H26.7927L27.3544 23.5692C27.4228 23.0908 27.2802 22.6064 26.9636 22.2413C26.647 21.8763 26.1876 21.6666 25.7044 21.6667H25.4661C25.8524 20.9018 26.3398 20.1924 26.9152 19.5575C27.9503 20.3003 29.371 20.1848 30.2725 19.2845C31.174 18.3843 31.2916 16.9638 30.5502 15.9276C29.8089 14.8914 28.4266 14.544 27.2835 15.1065C26.1404 15.6691 25.5723 16.9763 25.9411 18.1958C25.4817 18.6483 25.0673 19.1442 24.7036 19.6767C24.5612 18.9206 24.3305 18.1839 24.0161 17.4817C24.1112 17.2203 24.1617 16.9448 24.1652 16.6667C24.1652 15.286 23.0459 14.1667 21.6652 14.1667C20.2845 14.1667 19.1652 15.286 19.1652 16.6667C19.1652 18.0474 20.2845 19.1667 21.6652 19.1667C22.0562 19.1642 22.4409 19.0688 22.7877 18.8883C23.0604 19.7924 23.2296 20.7245 23.2919 21.6667H22.6252C22.142 21.6666 21.6826 21.8763 21.366 22.2413C21.0494 22.6064 20.9069 23.0908 20.9752 23.5692L21.5377 27.5H13.3319C11.9512 27.5 10.8319 28.6193 10.8319 30V33.3333C10.8319 33.7936 11.205 34.1667 11.6652 34.1667C12.1255 34.1667 12.4986 33.7936 12.4986 33.3333V32.5H21.6652V38.3333C21.6652 43.3075 20.7169 44.7558 20.4986 45.0333C20.0394 45.0649 19.5887 45.1731 19.1652 45.3533V43.3333C19.161 42.3616 18.814 41.4226 18.1852 40.6817C18.7806 40.4124 19.1638 39.8201 19.1652 39.1667C19.1652 37.3257 17.6728 35.8333 15.8319 35.8333H7.75272L7.49856 34.8792V12.5ZM22.6261 23.3333H25.7044L25.1094 27.5H23.2211L22.6261 23.3333ZM21.6652 17.5C21.205 17.5 20.8319 17.1269 20.8319 16.6667C20.8319 16.2064 21.205 15.8333 21.6652 15.8333C22.1255 15.8333 22.4986 16.2064 22.4986 16.6667C22.4986 17.1269 22.1255 17.5 21.6652 17.5ZM22.4986 29.1667H34.9986C35.4588 29.1667 35.8319 29.5398 35.8319 30V30.8333H12.4986V30C12.4986 29.5398 12.8717 29.1667 13.3319 29.1667H22.4986ZM23.3319 32.5H24.9986V38.3333C24.9986 41.805 25.4411 43.8217 25.9352 45H22.3952C22.8894 43.8217 23.3319 41.805 23.3319 38.3333V32.5ZM27.4986 17.5C27.4986 17.0398 27.8717 16.6667 28.3319 16.6667C28.7921 16.6667 29.1652 17.0398 29.1652 17.5C29.1652 17.9602 28.7921 18.3333 28.3319 18.3333C27.8717 18.3333 27.4986 17.9602 27.4986 17.5ZM8.18439 39.1667C8.35064 38.7 8.37499 38.1946 8.25439 37.7142L8.19772 37.5H15.8319C16.7524 37.5 17.4986 38.2462 17.4986 39.1667H8.18439ZM1.69023 26.0358C1.62026 25.7463 1.71008 25.4414 1.92584 25.2361C2.1416 25.0307 2.45053 24.9561 2.73625 25.0402C3.02198 25.1244 3.24109 25.3546 3.31106 25.6442L6.64439 38.1308C6.75255 38.5784 6.47739 39.0289 6.02981 39.1371C5.58223 39.2452 5.13171 38.9701 5.02356 38.5225L1.69023 26.0358ZM18.4744 48.3333C18.8289 47.3352 19.7727 46.668 20.8319 46.6667H27.4827C27.4961 46.6667 27.5094 46.6708 27.5227 46.6708H27.5352C28.5814 46.686 29.5074 47.351 29.8561 48.3375L18.4744 48.3333ZM46.6411 26.0225L43.3077 38.535C43.1923 38.9788 42.7428 39.2486 42.2969 39.1417C41.8541 39.0316 41.5821 38.5858 41.6869 38.1417L45.0202 25.63C45.1281 25.1824 45.5785 24.9071 46.0261 25.015C46.4736 25.1229 46.749 25.5732 46.6411 26.0208V26.0225Z"/>
    </symbol>
    <symbol id="icon-hypermarket" viewBox="0 0 50 50">
        <path d="M48.291 12.0381C49.2333 12.0381 50 11.2706 50 10.3271V9.34863C50 8.40469 49.2333 7.63672 48.291 7.63672H34.5891C33.5869 3.26826 29.6681 0 25 0C23.6274 0 22.2991 0.277441 21.0517 0.824512C20.6812 0.986914 20.5126 1.41895 20.6752 1.78945C20.8376 2.15996 21.2696 2.32852 21.6401 2.16592C22.7009 1.70078 23.8312 1.46484 25 1.46484C29.6166 1.46484 33.3726 5.2208 33.3726 9.8374C33.3726 14.4541 29.6166 18.2101 25 18.2101C20.3834 18.2101 16.6274 14.4541 16.6274 9.8374C16.6274 7.6043 17.4962 5.504 19.0735 3.92324C19.3593 3.63691 19.3588 3.17314 19.0725 2.8875C18.7861 2.60186 18.3224 2.60215 18.0367 2.88857C16.7131 4.21504 15.8145 5.85303 15.4087 7.63672H1.70898C0.766699 7.63672 0 8.40469 0 9.34863V10.3271C0 11.2705 0.766699 12.0381 1.70898 12.0381H2.92969V22.6531L0.11582 27.043C0.0742188 27.1148 0.0128906 27.2149 0 27.4383V31.1554C0 31.9361 0.635254 32.5714 1.41602 32.5714H2.92969V45.5994H1.70898C0.766699 45.5994 0 46.3669 0 47.3105V48.2891C0 49.2325 0.766699 50 1.70898 50H48.291C49.2333 50 50 49.2325 50 48.289V47.3104C50 46.3669 49.2333 45.5993 48.291 45.5993H47.0703V32.5713H48.584C49.3647 32.5713 50 31.936 50 31.1553V27.4382C49.9804 27.3138 50.0273 27.326 49.8842 27.0429L47.0703 22.6531V12.0381H48.291ZM25.7324 19.6477C30.0735 19.3267 33.6398 16.176 34.5891 12.038H35.9863V22.1353H25.7324V19.6477ZM15.4109 12.0381C16.3602 16.1761 19.9265 19.3268 24.2676 19.6478V22.1354H14.0137V12.0381H15.4109ZM1.70898 10.5732C1.57432 10.5732 1.46484 10.4629 1.46484 10.3271V9.34863C1.46484 9.21231 1.57432 9.10156 1.70898 9.10156H15.1896C15.1717 9.34521 15.1626 9.59062 15.1626 9.8374C15.1626 10.0849 15.172 10.3302 15.19 10.5731H1.70898V10.5732ZM12.5488 12.0381V22.1354H4.39453V12.0381H12.5488ZM48.291 47.0643C48.4257 47.0643 48.5352 47.1747 48.5352 47.3105V48.2891C48.5352 48.4248 48.4257 48.5353 48.291 48.5353H1.70898C1.57432 48.5353 1.46484 48.4248 1.46484 48.2891V47.3105C1.46484 47.1747 1.57432 47.0643 1.70898 47.0643H48.291ZM4.39453 45.5994V32.5713H17.634V45.5993H4.39453V45.5994ZM19.0988 45.5994V32.5713H24.2676V45.5993H19.0988V45.5994ZM31.6336 36.8882C32.0382 36.8882 32.366 36.5603 32.366 36.1558V32.5713H45.6055V45.5993H32.366V39.5737C32.366 39.1691 32.0382 38.8413 31.6336 38.8413C31.229 38.8413 30.9012 39.1691 30.9012 39.5737V45.5993H25.7324V32.5713H30.9012V36.1558C30.9012 36.5603 31.229 36.8882 31.6336 36.8882ZM48.5352 31.1064H1.46484V28.1706H48.5352V31.1064ZM47.9281 26.7059H2.07187L4.0626 23.6001H45.9375L47.9281 26.7059ZM37.4512 22.1353V12.0381H45.6055V22.1354H37.4512V22.1353ZM34.81 10.5732C34.828 10.3303 34.8374 10.085 34.8374 9.8375C34.8374 9.58994 34.828 9.34463 34.81 9.10166H48.291C48.4257 9.10166 48.5352 9.2125 48.5352 9.34873V10.3272C48.5352 10.463 48.4257 10.5733 48.291 10.5733H34.81V10.5732ZM14.7531 35.214H7.27539C6.49463 35.214 5.85938 35.8492 5.85938 36.63V41.5407C5.85938 42.3215 6.49463 42.9567 7.27539 42.9567H14.7531C15.5339 42.9567 16.1691 42.3215 16.1691 41.5407V36.63C16.1691 35.8492 15.5339 35.214 14.7531 35.214ZM14.7043 41.4919H7.32422V36.6788H14.7043V41.4919ZM21.6707 15.3764H28.3293C28.7991 15.3764 29.2451 15.17 29.553 14.8103C29.8651 14.4457 30.003 13.9641 29.9326 13.4869L29.1472 7.09805C29.067 6.45723 28.5155 5.98184 27.8802 5.98203H27.2627V5.05029C27.2627 3.80264 26.2477 2.7876 25 2.7876C23.7523 2.7876 22.7373 3.80264 22.7373 5.05029V5.98203H22.1198C21.4857 5.98242 20.9329 6.45518 20.8528 7.09805L20.0674 13.4869C19.9969 13.9641 20.1348 14.4456 20.447 14.8103C20.7549 15.17 21.201 15.3764 21.6707 15.3764ZM24.2021 5.05039C24.2021 4.61045 24.5601 4.25254 25 4.25254C25.4399 4.25254 25.7979 4.61045 25.7979 5.05039V5.98213H24.2021V5.05039ZM21.5168 13.6993C21.519 13.6854 22.2843 7.46504 22.2858 7.44697H22.7373V8.29346C22.7373 8.69805 23.0651 9.02588 23.4697 9.02588C23.8743 9.02588 24.2021 8.69805 24.2021 8.29346V7.44697H25.7979V8.29346C25.7979 8.69805 26.1257 9.02588 26.5303 9.02588C26.9349 9.02588 27.2627 8.69805 27.2627 8.29346V7.44697H27.7142C27.7151 7.46592 28.4804 13.6814 28.4832 13.6993C28.5026 13.8218 28.4386 13.907 28.3293 13.9115H21.6707C21.5617 13.907 21.4976 13.8209 21.5168 13.6993ZM35.2469 42.9567H42.7246C43.5054 42.9567 44.1406 42.3215 44.1406 41.5407V36.63C44.1406 35.8492 43.5054 35.214 42.7246 35.214H35.2469C34.4661 35.214 33.8309 35.8492 33.8309 36.63V41.5407C33.8309 42.3215 34.4661 42.9567 35.2469 42.9567ZM35.2957 36.6788H42.6758V41.4919H35.2957V36.6788Z"/>
    </symbol>
</svg>